<svg xmlns="http://www.w3.org/2000/svg" viewBox="0 0 512 512">
  <style>
    path { fill: black; }
    @media (prefers-color-scheme: dark) {
      path { fill: white; }
    }
  </style>
  <path d="m436-.313 3.786.005c14.44.031 28.835.147 43.214 1.558l3.438.33c7.799.93 14.972 2.13 20.019 8.541 2.083 4.436 2.654 9.117 3.23 13.941l.354 2.584c.364 2.782.672 5.564.959 8.354l.294 2.85c1.103 12.724.95 25.515.956 38.275l.002 3.803c-.015 17.91-.362 35.367-3.252 53.072l-.52 3.441C504.022 165.733 494.962 218.031 470 238c-5.019 2.51-9.72 2.72-15 1-9.556-6.977-17.739-16.611-26.07-24.973a18584.143 18584.143 0 0 1-16.602-16.631c-4.095-4.104-8.192-8.206-12.289-12.308A52262.362 52262.362 0 0 1 376 161c-3.62 1.699-5.943 3.711-8.766 6.57l-2.695 2.715-2.789 2.84c-.945.955-1.89 1.91-2.836 2.863A2593.13 2593.13 0 0 0 352 183c4.179 4.99 8.536 9.662 13.167 14.233l2.091 2.077a4429.42 4429.42 0 0 0 4.464 4.426 3892.29 3892.29 0 0 1 7.06 7.013 13077.08 13077.08 0 0 0 20.062 19.924c4.105 4.067 8.202 8.141 12.295 12.22 1.559 1.55 3.12 3.099 4.684 4.643 2.183 2.157 4.356 4.322 6.528 6.49l1.961 1.924c4.352 4.372 6.948 8.055 7.063 14.425-.14 4.689-1.156 8.144-4.375 11.625-4.7 3.447-9.154 4.758-15 4-5.75-2.251-9.41-6.002-13.658-10.317l-2.249-2.248a2360.215 2360.215 0 0 1-7.304-7.353l-5.086-5.099a7752.746 7752.746 0 0 1-13.346-13.42c-4.54-4.57-9.087-9.131-13.634-13.694A21427.697 21427.697 0 0 1 330 207c-3.62 1.699-5.943 3.711-8.766 6.57l-2.695 2.715-2.789 2.84c-.945.955-1.89 1.91-2.836 2.863A2593.13 2593.13 0 0 0 306 229c4.765 5.787 9.948 11.055 15.277 16.322a2135.24 2135.24 0 0 1 4.641 4.605 8123.97 8123.97 0 0 0 13.18 13.075c2.702 2.675 5.4 5.355 8.093 8.039 1.024 1.017 2.05 2.032 3.077 3.046 1.433 1.414 2.86 2.835 4.286 4.256l2.462 2.439c4.15 4.64 4.426 8.453 4.296 14.527-.6 5.17-3.217 7.7-6.937 11.066-4.463 2.15-8.505 2.635-13.375 1.625-4.317-2.617-7.809-5.564-11.363-9.136l-1.51-1.509a1567.45 1567.45 0 0 1-4.87-4.902c-1.134-1.138-2.268-2.276-3.404-3.413-2.973-2.981-5.94-5.968-8.907-8.956-3.033-3.054-6.072-6.102-9.11-9.15A15075.01 15075.01 0 0 1 284 253c-3.62 1.699-5.943 3.711-8.766 6.57l-2.695 2.715-2.789 2.84c-.945.955-1.89 1.91-2.836 2.863A2593.13 2593.13 0 0 0 260 275c3.539 4.324 7.262 8.307 11.258 12.215l1.434 1.403a967.578 967.578 0 0 0 5.936 5.764c12.724 12.246 12.724 12.246 13.81 21.243-.686 5.285-2.439 8.716-6.438 12.188-4.432 3.23-7.587 3.63-13 3.187-6.13-2.206-10.445-5.893-14.906-10.516l-1.85-1.866a1098.36 1098.36 0 0 1-5.744-5.868 3967.646 3967.646 0 0 0-3.938-3.992A2270.424 2270.424 0 0 1 237 299c-3.93 3.316-7.777 6.651-11.402 10.305l-2.256 2.265-2.28 2.305-2.36 2.375A3393.364 3393.364 0 0 0 213 322l1.379 2.121c17.17 26.519 28.083 53.03 27.934 85.129l-.018 3.861c-.123 9.63-.856 18.56-3.295 27.889l-.602 2.383c-3.092 11.969-7.3 22.867-13.398 33.617l-1.009 1.785A136.355 136.355 0 0 1 209 500l-2.363 2.77c-7.74 8.854-7.74 8.854-13.223 9.566-6 .084-9.753-.141-14.414-4.336-2.548-2.937-3.478-5.16-4.107-8.982l-.531-3.045-.559-3.327c-3.005-16.605-6.772-32.967-11.115-49.271l-.586-2.208c-7.044-26.34-15.476-57.42-40.41-72.078-16.535-9.225-34.716-14.847-52.942-19.651l-2.21-.585c-13.147-3.454-26.357-6.617-39.724-9.1l-3.71-.69c-2.274-.413-4.55-.806-6.83-1.176C10.063 336.79 6.397 335.605 2 331c-2.099-3.07-2.323-5.69-2.375-9.375l-.086-2.773c1.001-6.195 5.581-10.265 10.086-14.29l1.61-1.448C40.843 276.882 78.365 268.048 117 270c6.122.499 12.035 1.556 18 3l2.055.472c16.263 3.836 31.975 11.146 45.57 20.837 2.373 1.69 4.877 3.192 7.375 4.691l23-23c-3.723-4.343-7.19-8.29-11.258-12.215l-2.894-2.83a829.406 829.406 0 0 0-4.476-4.337c-12.586-12.113-12.586-12.113-13.872-21.118.723-5.064 2.173-9.348 6.008-12.895 4.574-3.01 9.159-3.555 14.492-2.605 5.767 2.718 10.288 6.871 14.688 11.395l1.781 1.794c1.851 1.868 3.691 3.745 5.531 5.624l3.793 3.833c3.077 3.11 6.145 6.23 9.207 9.354 3.849-3.25 7.633-6.507 11.184-10.086l2.119-2.129 2.135-2.16 2.216-2.23c1.785-1.796 3.566-3.595 5.346-5.395-1.573-3.808-3.965-6.194-6.877-9.072l-1.498-1.49a1106.628 1106.628 0 0 0-3.22-3.184c-1.703-1.677-3.399-3.36-5.094-5.045A6097.903 6097.903 0 0 0 231.5 200.5a6374.22 6374.22 0 0 1-12.527-12.415 1879.09 1879.09 0 0 0-5.022-4.959 7277.11 7277.11 0 0 1-3.074-3.054l-2.714-2.682c-4.082-4.51-4.601-7.973-4.487-13.917.624-4.76 3.694-8.474 7.324-11.473 2.982-.994 5.189-1.23 8.313-1.313l2.8-.113c5.972.881 10.136 5.427 14.25 9.562l1.51 1.509a1567.45 1567.45 0 0 1 4.87 4.902 5157.015 5157.015 0 0 1 12.311 12.37c3.033 3.053 6.072 6.101 9.11 9.15A13707.54 13707.54 0 0 1 282 206c3.849-3.25 7.633-6.507 11.184-10.086l2.119-2.129 2.135-2.16 2.216-2.23c1.785-1.796 3.566-3.595 5.346-5.395-1.33-2.954-2.776-5.02-5.074-7.295l-1.912-1.907-2.094-2.058-2.208-2.194c-1.582-1.57-3.166-3.14-4.752-4.706a2933.01 2933.01 0 0 1-7.513-7.453c-7.111-7.071-14.235-14.13-21.363-21.186-4.359-4.317-8.71-8.64-13.058-12.969a1975.41 1975.41 0 0 0-4.986-4.936c-2.327-2.296-4.644-4.6-6.96-6.907l-2.094-2.052c-4.31-4.318-6.658-7.439-7.361-13.65.527-5.185 1.977-9.469 5.883-13.082 4.468-2.94 9.262-3.587 14.492-2.605 5.745 2.306 9.395 5.988 13.658 10.317l2.249 2.248c2.442 2.444 4.873 4.898 7.304 7.353l5.086 5.099c4.455 4.467 8.901 8.942 13.346 13.42 4.54 4.57 9.087 9.131 13.634 13.694C310.193 142.079 319.1 151.036 328 160a3680.381 3680.381 0 0 0 5.248-4.478c2.062-1.792 4.012-3.668 5.936-5.608l2.119-2.129 2.135-2.16 2.216-2.23c1.785-1.796 3.566-3.595 5.346-5.395-1.33-2.954-2.773-5.017-5.074-7.288l-1.912-1.903-2.094-2.053-2.208-2.189a2502.037 2502.037 0 0 0-4.752-4.696 2928.34 2928.34 0 0 1-7.513-7.441c-7.11-7.062-14.232-14.112-21.363-21.154a5064.622 5064.622 0 0 1-13.058-12.949c-1.659-1.645-3.32-3.287-4.986-4.925-2.33-2.29-4.646-4.594-6.96-6.9l-2.094-2.04c-4.182-4.2-6.795-7.65-7.103-13.806l.242-2.156.195-2.156c1.616-5.57 4.747-8.822 9.752-11.614l1.99-1.042 2.134-1.149c2.258-1.2 4.529-2.372 6.804-3.539l2.17-1.138C317.76 16.1 342.066 9.618 367 5l2.718-.507C391.695.49 413.7-.378 436-.313ZM391.187 61.75C388.688 65.463 388 67.537 388 72c1.618 5.213 3.85 8.472 8 12 3.73 1.244 7.126 1.522 11 1 4.797-2.398 7.637-5.183 10-10 .814-4.629.44-8.026-1.5-12.313-3.705-3.982-7.742-6.227-13.125-7.124-4.77.878-7.738 2.815-11.188 6.187Z"/>
</svg>
